<?xml version="1.0" encoding="UTF-8" standalone="no"?>
<!DOCTYPE svg PUBLIC "-//W3C//DTD SVG 1.1//EN" "http://www.w3.org/Graphics/SVG/1.1/DTD/svg11.dtd">
<svg width="100%" height="100%" viewBox="0 0 124 30" version="1.1" xmlns="http://www.w3.org/2000/svg" xmlns:xlink="http://www.w3.org/1999/xlink" xml:space="preserve" xmlns:serif="http://www.serif.com/" style="fill-rule:evenodd;clip-rule:evenodd;stroke-linejoin:round;stroke-miterlimit:2;">
    <rect id="Logo" x="0.353" y="0" width="123" height="30" style="fill:none;"/>
    <clipPath id="_clip1">
        <rect x="0.353" y="0" width="123" height="30"/>
    </clipPath>
    <g clip-path="url(#_clip1)">
        <g>
            <g>
                <path d="M28.223,15.824c-1.556,-2.696 -5.007,-3.621 -7.703,-2.064l-9.84,5.681c-2.695,1.556 -3.62,5.008 -2.064,7.703l0.021,0.036c1.556,2.696 5.008,3.621 7.703,2.064l9.84,-5.681c2.696,-1.556 3.621,-5.008 2.064,-7.703l-0.021,-0.036Z" style="fill:#008af4;"/>
                <path d="M20.716,2.82c-1.557,-2.696 -5.008,-3.621 -7.704,-2.064l-9.84,5.681c-2.695,1.556 -3.62,5.008 -2.064,7.703l0.021,0.036c1.556,2.696 5.008,3.621 7.703,2.064l9.841,-5.681c2.695,-1.556 3.62,-5.008 2.064,-7.703l-0.021,-0.036Z" style="fill:#ff4c1a;"/>
            </g>
            <g>
                <path d="M40.904,23.143l-0,-15.405l4.894,0c1.491,0 2.672,0.326 3.544,0.978c0.871,0.652 1.306,1.5 1.306,2.546c0,0.873 -0.247,1.633 -0.742,2.277c-0.495,0.645 -1.179,1.103 -2.054,1.375l-0,0.043c1.061,0.122 1.909,0.514 2.544,1.176c0.634,0.663 0.951,1.524 0.951,2.584c0,1.318 -0.519,2.385 -1.559,3.201c-1.04,0.816 -2.352,1.225 -3.937,1.225l-4.947,-0Zm2.549,-13.353l-0,4.383l1.656,-0c0.889,-0 1.587,-0.21 2.092,-0.629c0.506,-0.419 0.758,-1.011 0.758,-1.777c0,-1.318 -0.882,-1.977 -2.645,-1.977l-1.861,0Zm-0,6.435l-0,4.877l2.183,-0c0.954,-0 1.691,-0.221 2.21,-0.661c0.52,-0.441 0.78,-1.047 0.78,-1.821c0,-1.597 -1.108,-2.395 -3.323,-2.395l-1.85,-0Z" style="fill:#4d4d4d;fill-rule:nonzero;"/>
                <path d="M63.254,18.319l-7.508,0c0.029,1.017 0.343,1.801 0.942,2.353c0.598,0.551 1.421,0.827 2.468,0.827c1.176,0 2.255,-0.351 3.237,-1.053l0,2.009c-1.003,0.63 -2.33,0.945 -3.979,0.945c-1.621,0 -2.892,-0.499 -3.813,-1.498c-0.921,-0.999 -1.382,-2.405 -1.382,-4.216c-0,-1.712 0.507,-3.107 1.522,-4.185c1.014,-1.077 2.275,-1.616 3.78,-1.616c1.506,-0 2.671,0.483 3.496,1.45c0.825,0.967 1.237,2.31 1.237,4.028l-0,0.956Zm-2.409,-1.761c-0.008,-0.896 -0.219,-1.592 -0.635,-2.09c-0.416,-0.497 -0.989,-0.746 -1.721,-0.746c-0.717,-0 -1.325,0.261 -1.823,0.784c-0.498,0.523 -0.805,1.207 -0.92,2.052l5.099,-0Z" style="fill:#4d4d4d;fill-rule:nonzero;"/>
                <path d="M72.02,14.517c-0.301,-0.237 -0.735,-0.355 -1.302,-0.355c-0.738,0 -1.355,0.333 -1.85,0.999c-0.494,0.666 -0.742,1.572 -0.742,2.718l0,5.264l-2.495,-0l-0,-11l2.495,-0l0,2.266l0.043,0c0.244,-0.773 0.619,-1.377 1.124,-1.81c0.506,-0.433 1.07,-0.65 1.694,-0.65c0.452,0 0.796,0.068 1.033,0.204l-0,2.364Z" style="fill:#4d4d4d;fill-rule:nonzero;"/>
                <path d="M83.615,22.262c-0,4.039 -2.033,6.058 -6.099,6.058c-1.434,0 -2.685,-0.24 -3.754,-0.719l0,-2.278c1.205,0.688 2.349,1.031 3.431,1.031c2.618,0 3.926,-1.285 3.926,-3.856l0,-1.203l-0.043,-0c-0.824,1.404 -2.065,2.105 -3.721,2.105c-1.341,0 -2.422,-0.488 -3.243,-1.466c-0.821,-0.977 -1.232,-2.29 -1.232,-3.937c0,-1.869 0.441,-3.355 1.323,-4.458c0.882,-1.103 2.094,-1.654 3.636,-1.654c1.455,-0 2.535,0.594 3.237,1.783l0.043,-0l0,-1.525l2.496,-0l-0,10.119Zm-2.474,-4.158l-0,-1.428c-0,-0.774 -0.257,-1.434 -0.769,-1.982c-0.513,-0.548 -1.153,-0.822 -1.92,-0.822c-0.947,0 -1.687,0.349 -2.221,1.047c-0.534,0.699 -0.801,1.674 -0.801,2.928c-0,1.081 0.256,1.946 0.769,2.594c0.512,0.648 1.192,0.972 2.038,0.972c0.86,0 1.559,-0.31 2.097,-0.929c0.538,-0.62 0.807,-1.413 0.807,-2.38Z" style="fill:#4d4d4d;fill-rule:nonzero;"/>
                <path d="M86.174,22.799l0,-2.31c0.933,0.709 1.961,1.064 3.087,1.064c1.506,-0 2.259,-0.444 2.259,-1.332c-0,-0.251 -0.065,-0.464 -0.194,-0.639c-0.129,-0.176 -0.303,-0.332 -0.521,-0.468c-0.219,-0.136 -0.477,-0.258 -0.775,-0.365c-0.297,-0.107 -0.629,-0.229 -0.995,-0.365c-0.451,-0.179 -0.858,-0.369 -1.22,-0.57c-0.363,-0.2 -0.664,-0.427 -0.904,-0.682c-0.24,-0.254 -0.421,-0.542 -0.543,-0.864c-0.122,-0.323 -0.183,-0.699 -0.183,-1.128c0,-0.53 0.126,-0.998 0.377,-1.402c0.251,-0.405 0.588,-0.745 1.011,-1.021c0.423,-0.275 0.903,-0.483 1.441,-0.623c0.538,-0.139 1.093,-0.209 1.667,-0.209c1.018,-0 1.929,0.154 2.732,0.462l-0,2.18c-0.775,-0.53 -1.664,-0.795 -2.667,-0.795c-0.316,0 -0.601,0.033 -0.856,0.097c-0.254,0.065 -0.471,0.154 -0.65,0.269c-0.18,0.114 -0.319,0.252 -0.42,0.413c-0.1,0.161 -0.15,0.339 -0.15,0.532c-0,0.236 0.05,0.437 0.15,0.602c0.101,0.164 0.249,0.309 0.447,0.435c0.197,0.125 0.433,0.239 0.709,0.343c0.277,0.104 0.594,0.217 0.952,0.339c0.474,0.193 0.898,0.39 1.275,0.591c0.376,0.2 0.697,0.427 0.963,0.682c0.265,0.254 0.469,0.548 0.613,0.881c0.143,0.333 0.215,0.728 0.215,1.187c-0,0.558 -0.129,1.045 -0.387,1.46c-0.259,0.416 -0.603,0.76 -1.033,1.032c-0.43,0.272 -0.927,0.474 -1.49,0.607c-0.563,0.132 -1.156,0.198 -1.78,0.198c-1.204,0 -2.248,-0.2 -3.13,-0.601Z" style="fill:#4d4d4d;fill-rule:nonzero;"/>
                <path d="M101.243,23.4c-1.699,0 -3.056,-0.513 -4.071,-1.541c-1.015,-1.028 -1.522,-2.39 -1.522,-4.088c0,-1.847 0.529,-3.29 1.587,-4.329c1.057,-1.038 2.482,-1.557 4.275,-1.557c1.721,-0 3.062,0.505 4.022,1.514c0.961,1.01 1.442,2.41 1.442,4.201c-0,1.754 -0.518,3.16 -1.554,4.216c-1.037,1.056 -2.429,1.584 -4.179,1.584Zm0.118,-9.528c-0.975,0 -1.746,0.34 -2.312,1.021c-0.567,0.68 -0.85,1.618 -0.85,2.814c0,1.153 0.287,2.061 0.861,2.723c0.573,0.663 1.34,0.994 2.301,0.994c0.983,-0 1.737,-0.326 2.264,-0.978c0.527,-0.651 0.791,-1.579 0.791,-2.782c-0,-1.21 -0.264,-2.145 -0.791,-2.804c-0.527,-0.659 -1.281,-0.988 -2.264,-0.988Z" style="fill:#4d4d4d;fill-rule:nonzero;"/>
                <path d="M115.376,8.888c-0.337,-0.194 -0.72,-0.29 -1.151,-0.29c-1.211,-0 -1.817,0.684 -1.817,2.051l-0,1.494l2.56,-0l-0,1.955l-2.549,-0l-0,9.045l-2.496,-0l0,-9.045l-1.882,-0l-0,-1.955l1.882,-0l0,-1.784c0,-1.16 0.38,-2.075 1.14,-2.744c0.76,-0.67 1.71,-1.005 2.851,-1.005c0.616,0 1.104,0.068 1.462,0.204l0,2.074Z" style="fill:#4d4d4d;fill-rule:nonzero;"/>
                <path d="M122.959,23.024c-0.488,0.244 -1.13,0.366 -1.926,0.366c-2.137,-0 -3.205,-1.024 -3.205,-3.073l0,-6.219l-1.839,-0l-0,-1.955l1.839,-0l0,-2.546l2.495,-0.709l0,3.255l2.636,-0l-0,1.955l-2.636,-0l0,5.5c0,0.651 0.119,1.117 0.355,1.396c0.237,0.279 0.631,0.419 1.183,0.419c0.424,0 0.789,-0.122 1.098,-0.365l-0,1.976Z" style="fill:#4d4d4d;fill-rule:nonzero;"/>
            </g>
        </g>
    </g>
</svg>
