<?xml version="1.0" encoding="UTF-8" standalone="no"?>
<!DOCTYPE svg PUBLIC "-//W3C//DTD SVG 1.1//EN" "http://www.w3.org/Graphics/SVG/1.1/DTD/svg11.dtd">
<svg width="100%" height="100%" viewBox="0 0 16 16" version="1.1" xmlns="http://www.w3.org/2000/svg" xmlns:xlink="http://www.w3.org/1999/xlink" xml:space="preserve" xmlns:serif="http://www.serif.com/" style="fill-rule:evenodd;clip-rule:evenodd;stroke-linejoin:round;stroke-miterlimit:2;">
    <rect id="Artboard4" x="0" y="0" width="46" height="35" style="fill:none;"/>
    <clipPath id="_clip1">
        <rect x="0" y="0" width="46" height="35"/>
    </clipPath>
    <g clip-path="url(#_clip1)">
        <circle cx="8" cy="8" r="8" style="fill:#7819ff;"/>
        <path d="M9.09,9.48l-0.029,0c-0.286,0.93 -0.846,1.395 -1.682,1.395c-0.535,0 -0.966,-0.197 -1.292,-0.592c-0.326,-0.394 -0.489,-0.926 -0.489,-1.594c-0,-0.882 0.225,-1.616 0.676,-2.2c0.452,-0.584 1.044,-0.876 1.779,-0.876c0.281,0 0.532,0.073 0.753,0.217c0.22,0.145 0.362,0.326 0.424,0.545l0.024,0c0.008,-0.109 0.027,-0.334 0.058,-0.674l0.733,0c-0.184,2.153 -0.275,3.248 -0.275,3.287c-0,0.809 0.232,1.213 0.697,1.213c0.422,0 0.772,-0.228 1.052,-0.685c0.279,-0.457 0.418,-1.049 0.418,-1.776c0,-1.074 -0.339,-1.951 -1.019,-2.631c-0.68,-0.679 -1.621,-1.019 -2.824,-1.019c-1.16,-0 -2.119,0.406 -2.877,1.219c-0.758,0.812 -1.137,1.828 -1.137,3.046c0,1.2 0.36,2.167 1.081,2.904c0.721,0.736 1.693,1.104 2.915,1.104c0.965,0 1.789,-0.16 2.473,-0.48l-0,0.726c-0.676,0.289 -1.52,0.434 -2.531,0.434c-1.422,-0 -2.568,-0.429 -3.437,-1.286c-0.869,-0.858 -1.304,-1.98 -1.304,-3.366c0,-1.43 0.456,-2.616 1.369,-3.557c0.912,-0.941 2.077,-1.412 3.495,-1.412c1.328,-0 2.427,0.394 3.298,1.183c0.872,0.79 1.307,1.819 1.307,3.088c0,0.93 -0.229,1.693 -0.688,2.288c-0.459,0.596 -1.019,0.894 -1.679,0.894c-0.856,0 -1.285,-0.465 -1.289,-1.395Zm-1.049,-3.187c-0.484,-0 -0.876,0.23 -1.175,0.691c-0.299,0.461 -0.448,1.034 -0.448,1.717c-0,0.461 0.101,0.824 0.302,1.09c0.201,0.266 0.469,0.398 0.805,0.398c0.485,0 0.869,-0.241 1.152,-0.723c0.283,-0.483 0.425,-1.122 0.425,-1.919c-0,-0.836 -0.354,-1.254 -1.061,-1.254Z" style="fill:#fff;fill-rule:nonzero;"/>
    </g>
</svg>
